HIERARCHY
ROOT Hips
{
	OFFSET 0.000000 71.206352 2.654994
	CHANNELS 6 Xposition Yposition Zposition Xrotation Yrotation Zrotation
	JOINT Pelvis
	{
		OFFSET 0.000000 0.000000 0.000000
		CHANNELS 3 Xrotation Yrotation Zrotation
		JOINT LeftUpLeg
		{
			OFFSET 6.797117 -2.508530 -1.318654
			CHANNELS 3 Xrotation Yrotation Zrotation
			JOINT LeftLeg
			{
				OFFSET 2.604768 -29.125713 0.690240
				CHANNELS 3 Xrotation Yrotation Zrotation
				JOINT LeftFoot
				{
					OFFSET 2.495626 -29.462662 -0.266779
					CHANNELS 3 Xrotation Yrotation Zrotation
					JOINT LeftToeBase
					{
						OFFSET 3.145477 -8.630991 16.059889
						CHANNELS 3 Xrotation Yrotation Zrotation
						End Site
						{
							OFFSET 0.000000 18.501570 0.000000
						}
					}
				}
			}
			JOINT Left_ShortSleeve
			{
				OFFSET 1.173896 -10.418373 1.153777
				CHANNELS 3 Xrotation Yrotation Zrotation
				End Site
				{
					OFFSET 0.000000 19.898849 0.000000
				}
			}
		}
		JOINT RightUpLeg
		{
			OFFSET -6.797117 -2.508530 -1.318654
			CHANNELS 3 Xrotation Yrotation Zrotation
			JOINT RightLeg
			{
				OFFSET -2.618195 -29.124561 0.688025
				CHANNELS 3 Xrotation Yrotation Zrotation
				JOINT RightFoot
				{
					OFFSET -2.482200 -29.463818 -0.264565
					CHANNELS 3 Xrotation Yrotation Zrotation
					JOINT RightToeBase
					{
						OFFSET -3.115344 -8.682778 16.113401
						CHANNELS 3 Xrotation Yrotation Zrotation
						End Site
						{
							OFFSET 0.000000 18.567112 0.000000
						}
					}
				}
			}
			JOINT Right_ShortSleeve
			{
				OFFSET -1.173896 -10.418373 1.153777
				CHANNELS 3 Xrotation Yrotation Zrotation
				End Site
				{
					OFFSET 0.000000 19.898849 0.000000
				}
			}
		}
	}
	JOINT Spine
	{
		OFFSET 0.000000 13.368111 0.470529
		CHANNELS 3 Xrotation Yrotation Zrotation
		JOINT Spine1
		{
			OFFSET 0.146996 13.837402 0.538789
			CHANNELS 3 Xrotation Yrotation Zrotation
			JOINT Spine2
			{
				OFFSET 0.167995 16.242874 -1.435485
				CHANNELS 3 Xrotation Yrotation Zrotation
				JOINT Neck
				{
					OFFSET 0.217193 18.631516 -1.679142
					CHANNELS 3 Xrotation Yrotation Zrotation
					JOINT Head
					{
						OFFSET 0.000000 6.599380 1.385859
						CHANNELS 3 Xrotation Yrotation Zrotation
						JOINT Hat
						{
							OFFSET -0.532184 27.220581 -10.096070
							CHANNELS 3 Xrotation Yrotation Zrotation
							End Site
							{
								OFFSET 0.000000 22.029861 0.000000
							}
						}
						JOINT HairD
						{
							OFFSET -10.777430 17.437408 -1.325938
							CHANNELS 3 Xrotation Yrotation Zrotation
							JOINT HairD1
							{
								OFFSET -3.290256 -11.051163 1.062188
								CHANNELS 3 Xrotation Yrotation Zrotation
								End Site
								{
									OFFSET 0.000000 11.579391 0.000000
								}
							}
						}
						JOINT HairB
						{
							OFFSET -10.777430 17.437408 1.467893
							CHANNELS 3 Xrotation Yrotation Zrotation
							JOINT HairB1
							{
								OFFSET -1.561211 -12.956329 3.590162
								CHANNELS 3 Xrotation Yrotation Zrotation
								End Site
								{
									OFFSET 0.000000 13.534882 0.000000
								}
							}
						}
						JOINT HairA
						{
							OFFSET 9.713062 17.437408 1.467893
							CHANNELS 3 Xrotation Yrotation Zrotation
							JOINT HairA1
							{
								OFFSET 1.561211 -12.956329 3.590162
								CHANNELS 3 Xrotation Yrotation Zrotation
								End Site
								{
									OFFSET 0.000000 13.534882 0.000000
								}
							}
						}
						JOINT HairC
						{
							OFFSET 9.713062 17.437408 -1.325938
							CHANNELS 3 Xrotation Yrotation Zrotation
							JOINT HairC1
							{
								OFFSET 3.290255 -11.051163 1.062188
								CHANNELS 3 Xrotation Yrotation Zrotation
								End Site
								{
									OFFSET 0.000000 11.579391 0.000000
								}
							}
						}
					}
				}
				JOINT LeftShoulder
				{
					OFFSET 5.101767 15.108002 -2.763695
					CHANNELS 3 Xrotation Yrotation Zrotation
					JOINT LeftArm
					{
						OFFSET 9.825546 2.506256 -1.597438
						CHANNELS 3 Xrotation Yrotation Zrotation
						JOINT LeftForeArm
						{
							OFFSET 21.924620 0.000000 -1.351923
							CHANNELS 3 Xrotation Yrotation Zrotation
							JOINT LeftHand
							{
								OFFSET 33.867149 -0.000336 -0.895185
								CHANNELS 3 Xrotation Yrotation Zrotation
								JOINT LeftHandThumb1
								{
									OFFSET 6.800735 -1.610214 3.624442
									CHANNELS 3 Xrotation Yrotation Zrotation
									JOINT LeftHandThumb2
									{
										OFFSET 2.133118 -1.047562 2.197256
										CHANNELS 3 Xrotation Yrotation Zrotation
										JOINT LeftHandThumb3
										{
											OFFSET 2.939781 -1.955193 1.239051
											CHANNELS 3 Xrotation Yrotation Zrotation
											End Site
											{
												OFFSET 0.000000 3.741707 0.000000
											}
										}
									}
								}
								JOINT LeftHandIndex1
								{
									OFFSET 14.184837 0.837936 3.778969
									CHANNELS 3 Xrotation Yrotation Zrotation
									JOINT LeftHandIndex2
									{
										OFFSET 3.454674 -0.747025 -0.349037
										CHANNELS 3 Xrotation Yrotation Zrotation
										JOINT LeftHandIndex3
										{
											OFFSET 2.708313 -1.000595 -0.200658
											CHANNELS 3 Xrotation Yrotation Zrotation
											End Site
											{
												OFFSET 0.000000 2.894211 0.000000
											}
										}
									}
								}
								JOINT LeftHandMiddle1
								{
									OFFSET 13.765343 0.551865 -0.058510
									CHANNELS 3 Xrotation Yrotation Zrotation
									JOINT LeftHandMiddle2
									{
										OFFSET 3.329315 -0.830414 -0.218270
										CHANNELS 3 Xrotation Yrotation Zrotation
										JOINT LeftHandMiddle3
										{
											OFFSET 3.521812 -1.082275 -0.230450
											CHANNELS 3 Xrotation Yrotation Zrotation
											End Site
											{
												OFFSET 0.000000 3.691559 0.000000
											}
										}
									}
								}
								JOINT LeftHandRing1
								{
									OFFSET 13.969360 -0.122360 -3.062001
									CHANNELS 3 Xrotation Yrotation Zrotation
									JOINT LeftHandRing2
									{
										OFFSET 3.063065 -0.760193 -0.203345
										CHANNELS 3 Xrotation Yrotation Zrotation
										JOINT LeftHandRing3
										{
											OFFSET 3.200409 -0.861923 -0.256632
											CHANNELS 3 Xrotation Yrotation Zrotation
											End Site
											{
												OFFSET 0.000000 3.324356 0.000000
											}
										}
									}
								}
								JOINT LeftHandPinky1
								{
									OFFSET 13.134644 -0.420990 -5.726565
									CHANNELS 3 Xrotation Yrotation Zrotation
									JOINT LeftHandPinky2
									{
										OFFSET 2.705887 -0.872284 -0.187246
										CHANNELS 3 Xrotation Yrotation Zrotation
										JOINT LeftHandPinky3
										{
											OFFSET 2.653091 -0.882462 -0.224701
											CHANNELS 3 Xrotation Yrotation Zrotation
											End Site
											{
												OFFSET 0.000000 2.805023 0.000000
											}
										}
									}
								}
							}
							JOINT Left_Sleeve
							{
								OFFSET 6.611050 -0.646652 0.631114
								CHANNELS 3 Xrotation Yrotation Zrotation
								End Site
								{
									OFFSET 0.000000 20.275742 0.000000
								}
							}
						}
					}
				}
				JOINT RightShoulder
				{
					OFFSET -5.731749 15.108002 -2.763695
					CHANNELS 3 Xrotation Yrotation Zrotation
					JOINT RightArm
					{
						OFFSET -9.825546 2.506256 -1.597438
						CHANNELS 3 Xrotation Yrotation Zrotation
						JOINT RightForeArm
						{
							OFFSET -21.924620 0.000000 -1.351923
							CHANNELS 3 Xrotation Yrotation Zrotation
							JOINT RightHand
							{
								OFFSET -33.867149 -0.000336 -0.895185
								CHANNELS 3 Xrotation Yrotation Zrotation
								JOINT RightHandThumb1
								{
									OFFSET -6.800735 -1.610214 3.624442
									CHANNELS 3 Xrotation Yrotation Zrotation
									JOINT RightHandThumb2
									{
										OFFSET -2.133118 -1.047562 2.197256
										CHANNELS 3 Xrotation Yrotation Zrotation
										JOINT RightHandThumb3
										{
											OFFSET -2.939781 -1.955193 1.239051
											CHANNELS 3 Xrotation Yrotation Zrotation
											End Site
											{
												OFFSET 0.000000 3.741707 0.000000
											}
										}
									}
								}
								JOINT RightHandIndex1
								{
									OFFSET -14.184837 0.837936 3.778969
									CHANNELS 3 Xrotation Yrotation Zrotation
									JOINT RightHandIndex2
									{
										OFFSET -3.454674 -0.747025 -0.349037
										CHANNELS 3 Xrotation Yrotation Zrotation
										JOINT RightHandIndex3
										{
											OFFSET -2.708313 -1.000595 -0.200658
											CHANNELS 3 Xrotation Yrotation Zrotation
											End Site
											{
												OFFSET 0.000000 2.894211 0.000000
											}
										}
									}
								}
								JOINT RightHandMiddle1
								{
									OFFSET -13.765343 0.551865 -0.058511
									CHANNELS 3 Xrotation Yrotation Zrotation
									JOINT RightHandMiddle2
									{
										OFFSET -3.329315 -0.830414 -0.218269
										CHANNELS 3 Xrotation Yrotation Zrotation
										JOINT RightHandMiddle3
										{
											OFFSET -3.521812 -1.082275 -0.230450
											CHANNELS 3 Xrotation Yrotation Zrotation
											End Site
											{
												OFFSET 0.000000 3.691559 0.000000
											}
										}
									}
								}
								JOINT RightHandRing1
								{
									OFFSET -13.969353 -0.122360 -3.062001
									CHANNELS 3 Xrotation Yrotation Zrotation
									JOINT RightHandRing2
									{
										OFFSET -3.063072 -0.760193 -0.203345
										CHANNELS 3 Xrotation Yrotation Zrotation
										JOINT RightHandRing3
										{
											OFFSET -3.200409 -0.861923 -0.256632
											CHANNELS 3 Xrotation Yrotation Zrotation
											End Site
											{
												OFFSET 0.000000 3.324356 0.000000
											}
										}
									}
								}
								JOINT RightHandPinky1
								{
									OFFSET -13.134644 -0.420990 -5.726565
									CHANNELS 3 Xrotation Yrotation Zrotation
									JOINT RightHandPinky2
									{
										OFFSET -2.705887 -0.872284 -0.187247
										CHANNELS 3 Xrotation Yrotation Zrotation
										JOINT RightHandPinky3
										{
											OFFSET -2.653091 -0.882462 -0.224700
											CHANNELS 3 Xrotation Yrotation Zrotation
											End Site
											{
												OFFSET 0.000000 2.805023 0.000000
											}
										}
									}
								}
							}
							JOINT Right_Sleeve
							{
								OFFSET -6.611050 -0.646652 0.631114
								CHANNELS 3 Xrotation Yrotation Zrotation
								End Site
								{
									OFFSET 0.000000 20.275742 0.000000
								}
							}
						}
					}
				}
				JOINT Bind_Right_JacketString
				{
					OFFSET -3.534774 11.969604 7.200667
					CHANNELS 3 Xrotation Yrotation Zrotation
					JOINT Bind_Right_JacketString1
					{
						OFFSET -0.319887 -6.102631 2.794061
						CHANNELS 3 Xrotation Yrotation Zrotation
						End Site
						{
							OFFSET 0.000000 6.719467 0.000000
						}
					}
				}
				JOINT Bind_Left_JacketString
				{
					OFFSET 2.904793 11.969604 7.200667
					CHANNELS 3 Xrotation Yrotation Zrotation
					JOINT Bind_Left_JacketString1
					{
						OFFSET 0.364847 -5.904457 3.186764
						CHANNELS 3 Xrotation Yrotation Zrotation
						End Site
						{
							OFFSET 0.000000 6.719460 0.000000
						}
					}
				}
				JOINT HairE
				{
					OFFSET 5.915198 17.612656 -11.592244
					CHANNELS 3 Xrotation Yrotation Zrotation
					JOINT HairE1
					{
						OFFSET 0.289203 -7.171906 -1.284488
						CHANNELS 3 Xrotation Yrotation Zrotation
						End Site
						{
							OFFSET 0.000000 7.291763 0.000000
						}
					}
				}
				JOINT HairF
				{
					OFFSET -0.864797 17.612656 -11.592244
					CHANNELS 3 Xrotation Yrotation Zrotation
					JOINT HairF1
					{
						OFFSET -0.000000 -14.087097 -2.127508
						CHANNELS 3 Xrotation Yrotation Zrotation
						End Site
						{
							OFFSET 0.000000 14.246841 0.000000
						}
					}
				}
				JOINT HairG
				{
					OFFSET -8.087694 17.612656 -11.592244
					CHANNELS 3 Xrotation Yrotation Zrotation
					JOINT HairG1
					{
						OFFSET -0.293551 -6.081375 -0.910136
						CHANNELS 3 Xrotation Yrotation Zrotation
						End Site
						{
							OFFSET 0.000000 6.156113 0.000000
						}
					}
				}
			}
		}
	}
	JOINT Pouch
	{
		OFFSET 0.000000 4.394547 10.847303
		CHANNELS 3 Xrotation Yrotation Zrotation
		End Site
		{
			OFFSET 0.000000 21.880577 0.000000
		}
	}
	JOINT Bag
	{
		OFFSET -13.229022 4.813034 -0.593262
		CHANNELS 3 Xrotation Yrotation Zrotation
		End Site
		{
			OFFSET 0.000000 21.880577 0.000000
		}
	}
	JOINT OccupyGuyFacialAnim_Joint
	{
		OFFSET 1.000000 -70.206352 -1.654994
		CHANNELS 3 Xrotation Yrotation Zrotation
		End Site
		{
			OFFSET 0.000000 21.880581 0.000000
		}
	}
}
MOTION
Frames: 5
Frame Time: 0.016667
-2.465617 69.191551 2.245224 0.293699 -22.227927 -2.766194 -0.000000 0.000000 -0.000000 -11.299102 0.090104 -9.420876 36.266218 14.208597 6.313155 -21.046784 5.391845 0.795742 0.000000 -0.000001 0.000000 -0.000000 -0.000000 -0.000000 -7.097522 -15.781663 11.245381 28.585725 7.390587 -1.295770 -18.746503 4.152113 -15.547753 0.000000 0.000001 0.000000 0.000000 -0.000003 -0.000000 -5.317504 25.430066 11.011544 3.997430 3.936052 -7.691240 4.476292 3.961409 -7.425023 3.040561 -3.094698 4.070851 6.875134 -11.753987 7.892889 0.000000 -0.000000 -0.000000 0.000000 -0.000000 -0.000000 0.000000 -0.000000 0.000000 0.000000 -0.000000 0.000000 0.000000 -0.000000 0.000000 0.000000 -0.000000 0.000000 0.000000 -0.000000 0.000000 0.000000 -0.000000 -0.000000 0.000000 -0.000000 0.000000 0.325190 0.835602 7.865711 17.364784 -0.159101 -26.190688 -0.000061 -103.007920 0.000451 29.837261 -42.387888 29.459750 1.426205 14.392926 6.929903 -8.967693 -1.860158 5.885593 0.000000 0.000002 0.000001 -3.689935 -4.985672 -32.363796 -2.628655 1.795459 -38.429305 -0.000003 0.000003 -0.000002 -2.420990 -3.426215 -30.435132 -2.852464 0.678699 -43.507841 -0.000003 -0.000001 0.000002 -2.450919 -3.461148 -30.520256 -3.637843 0.396783 -45.417203 0.000001 0.000002 -0.000001 0.459353 -0.705277 -26.584623 -5.078574 -3.289600 -46.209867 -0.000002 0.000000 -0.000003 0.000001 0.000000 -0.000000 0.758279 1.963743 2.804245 -26.304310 13.504490 68.561453 -0.000038 110.110702 -0.000464 42.709101 -6.898921 46.057601 1.156375 -13.058748 -7.059768 -7.570887 -6.880167 -6.248331 0.000001 -0.000001 0.000000 -0.057580 5.596940 -4.218872 0.214895 -1.305238 2.182455 -0.000000 0.000003 0.000000 0.030015 3.590841 -6.045436 -0.493793 0.047724 7.151216 -0.000001 0.000000 -0.000001 0.027841 3.636398 -5.978033 -0.933776 0.732829 9.089020 0.000000 -0.000001 -0.000001 0.167795 3.738252 -9.906798 -1.082885 0.743084 9.688874 -0.000001 -0.000001 -0.000001 0.000000 -0.000003 -0.000000 -0.000000 -0.000000 0.000000 -0.000000 -0.000000 0.000000 -0.000000 -0.000000 0.000000 -0.000000 -0.000000 0.000000 -0.000000 -0.000000 0.000000 -0.000000 0.000000 0.000001 -0.000000 -0.000000 0.000000 -0.000000 -0.000000 0.000000 -0.000000 -0.000000 0.000000 -0.000000 -0.000000 0.000001 -0.000000 0.000000 -0.000000 -0.000000 0.000000 -0.000000 -0.000000 0.000000 -0.000000 
-2.516118 69.144157 2.137268 0.976595 -23.650001 -1.379153 0.000000 -0.000002 -0.000000 -10.084469 0.522678 -9.514182 33.476779 13.592556 4.094905 -22.078686 5.862095 2.946064 -0.000000 0.000000 0.000000 -0.000001 -0.000002 0.000000 -9.313479 -16.244558 10.860131 31.366524 6.621596 -2.895193 -19.834226 5.882319 -16.932893 0.000000 -0.000001 -0.000000 -0.000000 0.000002 0.000001 -5.561940 25.949656 10.944907 4.220426 3.950582 -8.490480 4.749215 3.992890 -8.204206 2.987699 -2.928618 4.057882 6.667906 -11.048129 8.304521 0.000002 -0.000000 0.000000 0.000002 -0.000000 0.000000 0.000002 0.000000 0.000000 0.000002 -0.000000 0.000000 0.000002 -0.000000 0.000000 0.000002 -0.000000 0.000000 0.000002 -0.000000 0.000000 0.000002 -0.000000 0.000000 0.000002 0.000000 0.000000 0.327253 0.857187 7.499549 13.805815 3.156663 -25.837906 0.000074 -101.355042 0.000564 29.725721 -42.580359 29.392257 1.442529 14.566876 6.839430 -8.967694 -1.860157 5.885593 0.000003 0.000000 0.000002 -3.709725 -4.975108 -32.582635 -2.644424 1.803913 -38.650306 -0.000001 0.000000 -0.000001 -2.434827 -3.420491 -30.653705 -2.864900 0.687614 -43.729354 0.000001 0.000003 0.000001 -2.464893 -3.455307 -30.738839 -3.651540 0.408746 -45.638580 -0.000002 -0.000002 0.000002 0.455872 -0.710541 -26.802835 -5.092057 -3.276286 -46.432019 -0.000001 -0.000002 -0.000002 0.000002 -0.000000 0.000000 0.652811 1.559984 2.089201 -27.717973 18.123622 70.025148 0.000041 110.037428 -0.000561 42.687975 -5.477543 47.737941 1.204272 -11.581866 -7.113410 -7.741523 -4.831473 -6.061964 -0.000001 0.000002 -0.000000 -0.057580 5.596939 -4.218872 0.214894 -1.305238 2.182455 0.000000 0.000004 -0.000000 0.030015 3.590842 -6.045434 -0.493794 0.047722 7.151213 -0.000002 -0.000001 -0.000001 0.027840 3.636399 -5.978030 -0.933777 0.732827 9.089018 -0.000000 -0.000001 0.000002 0.167795 3.738249 -9.906796 -1.082884 0.743082 9.688873 -0.000000 0.000001 -0.000000 -0.000000 -0.000002 -0.000000 0.000000 -0.000001 -0.000000 0.000000 -0.000001 -0.000000 0.000000 -0.000001 -0.000000 0.000000 -0.000001 -0.000000 0.000000 -0.000001 -0.000000 0.000000 -0.000001 -0.000000 0.000000 -0.000001 -0.000000 0.000000 -0.000001 -0.000000 0.000000 -0.000001 -0.000000 0.000000 -0.000001 -0.000000 0.000000 -0.000002 -0.000000 0.000000 -0.000002 -0.000000 0.000000 -0.000002 -0.000000 
-2.503036 69.132675 2.001674 1.693034 -24.612788 -0.030710 0.000000 -0.000002 -0.000000 -8.979558 0.883951 -9.742329 30.538199 13.083116 2.296784 -22.540816 5.891718 4.814740 -0.000000 -0.000000 0.000000 0.000000 -0.000002 -0.000000 -13.386672 -16.000386 9.533706 36.214257 6.037611 -4.013262 -18.803246 6.619559 -15.138546 0.000000 -0.000001 0.000000 0.000001 -0.000001 -0.000001 -5.837282 26.025302 11.003857 4.475672 3.888728 -9.274569 5.047278 3.947505 -8.970703 2.899902 -2.740071 4.005313 6.479659 -10.247168 8.642149 0.000001 0.000000 -0.000000 0.000001 0.000000 -0.000000 0.000001 -0.000000 -0.000000 0.000001 0.000000 -0.000000 0.000001 0.000000 -0.000000 0.000001 0.000000 -0.000000 0.000001 0.000000 -0.000000 0.000001 0.000000 -0.000000 0.000001 -0.000000 -0.000000 0.367764 0.793788 6.904616 9.603173 6.117192 -25.618375 0.000040 -99.617353 0.000523 29.730796 -42.781846 29.365101 1.456945 14.715079 6.761808 -8.967695 -1.860159 5.885593 0.000001 0.000001 0.000000 -3.713001 -4.973345 -32.618975 -2.646904 1.805273 -38.685317 0.000000 0.000001 -0.000001 -2.437127 -3.419536 -30.689997 -2.866861 0.689046 -43.764451 0.000001 0.000001 0.000000 -2.467201 -3.454330 -30.775135 -3.653695 0.410649 -45.673649 0.000000 0.000001 -0.000000 0.455287 -0.711426 -26.839061 -5.094188 -3.274162 -46.467245 0.000002 -0.000001 0.000001 0.000003 0.000001 -0.000000 0.538050 0.995601 1.420810 -28.896095 22.873370 70.888232 -0.000028 109.936409 -0.000463 42.350878 -4.314414 48.690431 1.248068 -10.261672 -7.162197 -7.892642 -3.077229 -5.897856 -0.000000 -0.000000 -0.000000 -0.057580 5.596938 -4.218874 0.214893 -1.305241 2.182454 0.000000 0.000000 -0.000000 0.030014 3.590841 -6.045435 -0.493793 0.047724 7.151212 -0.000000 0.000000 0.000001 0.027840 3.636399 -5.978032 -0.933777 0.732825 9.089018 -0.000002 0.000000 0.000001 0.167794 3.738252 -9.906797 -1.082885 0.743086 9.688873 0.000001 -0.000000 -0.000001 -0.000000 0.000000 -0.000001 -0.000001 0.000000 0.000000 -0.000001 0.000000 0.000000 -0.000001 0.000000 0.000000 -0.000001 0.000000 0.000001 -0.000001 0.000000 0.000001 -0.000000 -0.000000 0.000001 -0.000001 0.000000 0.000000 -0.000001 0.000000 0.000000 -0.000001 0.000000 0.000001 -0.000000 -0.000000 0.000001 0.000000 -0.000002 -0.000000 0.000000 -0.000002 -0.000000 0.000000 -0.000002 -0.000000 
-2.426350 69.126060 1.847249 2.316247 -25.094988 1.243059 -0.000000 -0.000001 -0.000000 -8.018888 1.016644 -10.161467 27.760334 12.683766 0.948931 -22.515365 5.721734 6.188036 0.000000 -0.000001 0.000000 -0.000001 0.000000 -0.000001 -18.024142 -15.056739 7.812011 41.387521 5.573652 -4.597846 -16.155781 6.763971 -11.995037 0.000000 -0.000000 0.000000 -0.000001 0.000001 0.000001 -5.933907 25.722477 11.130335 4.668289 3.770795 -10.047020 5.276398 3.841544 -9.734970 2.826788 -2.552323 3.939363 6.357956 -9.443907 8.899213 -0.000001 -0.000000 0.000000 -0.000001 -0.000000 0.000000 0.000000 -0.000000 0.000000 -0.000001 -0.000000 0.000000 -0.000001 -0.000000 0.000000 -0.000001 -0.000000 0.000000 -0.000001 -0.000000 0.000000 -0.000001 -0.000000 0.000000 0.000000 -0.000000 0.000000 0.452093 0.628425 6.086938 4.884188 8.643774 -25.537456 -0.000008 -97.872601 0.000463 29.858459 -42.983152 29.410774 1.468634 14.822938 6.701625 -8.967695 -1.860160 5.885594 -0.000001 0.000000 0.000002 -3.694680 -4.983141 -32.416235 -2.632316 1.797424 -38.480548 -0.000000 0.000000 -0.000000 -2.424305 -3.424842 -30.487502 -2.855357 0.680765 -43.559193 0.000000 -0.000000 0.000001 -2.454261 -3.459738 -30.572630 -3.641027 0.399547 -45.468532 0.000001 -0.000001 0.000001 0.458522 -0.706517 -26.636903 -5.081712 -3.286530 -46.261360 -0.000000 -0.000002 -0.000001 0.000001 -0.000000 0.000000 0.421121 0.305507 0.828944 -29.453388 27.574695 70.927635 -0.000086 109.969823 -0.000422 41.922687 -3.625029 48.775528 1.290037 -9.023302 -7.208719 -8.027771 -1.554397 -5.751774 -0.000000 -0.000001 -0.000001 -0.057580 5.596939 -4.218873 0.214895 -1.305243 2.182454 -0.000000 0.000000 0.000001 0.030013 3.590840 -6.045435 -0.493795 0.047720 7.151214 0.000000 -0.000003 -0.000000 0.027840 3.636398 -5.978032 -0.933777 0.732830 9.089019 0.000000 0.000000 -0.000001 0.167795 3.738252 -9.906796 -1.082883 0.743084 9.688873 -0.000000 0.000002 0.000000 -0.000001 -0.000002 0.000002 -0.000000 -0.000000 -0.000000 -0.000000 -0.000000 -0.000000 -0.000000 -0.000000 -0.000000 -0.000000 -0.000000 -0.000000 -0.000000 -0.000000 -0.000000 0.000000 0.000000 -0.000000 -0.000000 -0.000000 -0.000000 -0.000000 -0.000000 -0.000000 -0.000000 -0.000000 -0.000000 0.000000 0.000000 -0.000000 -0.000000 -0.000001 -0.000000 -0.000000 -0.000001 -0.000000 -0.000000 -0.000001 -0.000000 
-2.308313 69.088333 1.682247 2.761937 -25.039957 2.424632 -0.000000 -0.000002 0.000000 -7.332410 0.798215 -10.723066 25.568844 12.389260 -0.091786 -22.227862 5.492906 7.031760 0.000000 -0.000000 -0.000000 -0.000000 0.000002 -0.000000 -21.701719 -13.889970 6.415154 45.522473 5.188721 -4.762057 -14.380653 7.037975 -11.240266 -0.000000 -0.000001 0.000000 0.000001 -0.000003 -0.000001 -5.719793 25.064653 11.201264 4.744228 3.610757 -10.783589 5.379337 3.685723 -10.476551 2.798255 -2.383758 3.886518 6.281929 -8.716024 9.096371 -0.000000 0.000001 -0.000000 -0.000000 0.000001 -0.000000 -0.000000 0.000001 -0.000000 -0.000000 0.000001 -0.000000 -0.000000 0.000001 -0.000000 -0.000000 0.000001 -0.000000 -0.000000 0.000001 -0.000000 -0.000000 0.000001 -0.000000 -0.000000 0.000001 -0.000000 0.582200 0.347903 5.060916 -0.187111 10.664468 -25.597534 0.000013 -96.197989 0.000541 30.081089 -43.177816 29.532140 1.477494 14.885651 6.659155 -8.967693 -1.860157 5.885592 -0.000002 -0.000001 -0.000000 -3.648308 -5.007559 -31.904790 -2.595723 1.778025 -37.968981 -0.000000 0.000000 -0.000000 -2.391897 -3.438027 -29.976676 -2.826457 0.660258 -43.046366 -0.000000 0.000002 0.000003 -2.421537 -3.473188 -30.061794 -3.609198 0.371996 -44.956069 -0.000001 0.000000 0.000001 0.466598 -0.694149 -26.126939 -5.050329 -3.317196 -45.747053 0.000001 0.000000 -0.000000 -0.000000 -0.000001 0.000000 0.305674 -0.473590 0.311067 -29.112633 32.011956 69.986729 -0.000041 110.237430 -0.000476 41.628698 -3.549255 48.036457 1.332479 -7.796529 -7.255570 -8.150676 -0.205596 -5.619412 -0.000000 0.000002 -0.000000 -0.057580 5.596944 -4.218873 0.214895 -1.305239 2.182455 0.000000 0.000000 -0.000001 0.030014 3.590842 -6.045434 -0.493795 0.047721 7.151215 0.000001 -0.000000 0.000001 0.027839 3.636400 -5.978032 -0.933777 0.732828 9.089021 -0.000000 -0.000000 -0.000000 0.167795 3.738254 -9.906796 -1.082884 0.743083 9.688874 -0.000000 0.000001 0.000001 -0.000000 0.000000 0.000001 0.000000 0.000001 -0.000001 0.000000 0.000001 -0.000001 0.000000 0.000001 -0.000001 0.000000 0.000001 0.000000 0.000000 0.000001 0.000000 0.000000 0.000001 0.000000 0.000000 0.000001 -0.000001 0.000000 0.000001 -0.000001 0.000000 0.000001 0.000000 0.000000 0.000001 0.000000 -0.000000 -0.000002 0.000000 -0.000000 -0.000002 0.000000 -0.000000 -0.000002 0.000000 
